<?xml version="1.0" encoding="UTF-8"?>
<svg xmlns="http://www.w3.org/2000/svg" width="800.000" height="600.000" viewBox="0.0 0.0 800.000 600.000" version="1.1">
  <desc>Produce by Acme CAD Converter</desc>
<path d="M669.83 249.2L673.03 249.2"
fill="none" stroke="black" stroke-width="0.5"/>
<path d="M673.28 253.84L672.67 252.72"
fill="none" stroke="black" stroke-width="0.5"/>
<path d="M672.67 252.72L672.43 251.54"
fill="none" stroke="black" stroke-width="0.5"/>
<path d="M672.43 251.54L672.55 250.35"
fill="none" stroke="black" stroke-width="0.5"/>
<path d="M672.55 250.35L673.03 249.2"
fill="none" stroke="black" stroke-width="0.5"/>
<path d="M669.83 249.2L666.63 249.2"
fill="none" stroke="black" stroke-width="0.5"/>
<path d="M666.63 249.2L667.12 250.35"
fill="none" stroke="black" stroke-width="0.5"/>
<path d="M667.12 250.35L667.24 251.54"
fill="none" stroke="black" stroke-width="0.5"/>
<path d="M667.24 251.54L666.99 252.72"
fill="none" stroke="black" stroke-width="0.5"/>
<path d="M666.99 252.72L666.38 253.84"
fill="none" stroke="black" stroke-width="0.5"/>
<path d="M669.83 305.09L684.5 305.09"
fill="none" stroke="black" stroke-width="0.5"/>
<path d="M669.83 303.63L684.5 303.63"
fill="none" stroke="black" stroke-width="0.5"/>
<path d="M690.98 290.53L691.91 291.82"
fill="none" stroke="black" stroke-width="0.5"/>
<path d="M691.91 291.82L692.53 293.2"
fill="none" stroke="black" stroke-width="0.5"/>
<path d="M692.53 293.2L692.83 294.63"
fill="none" stroke="black" stroke-width="0.5"/>
<path d="M692.83 294.63L692.81 296.08"
fill="none" stroke="black" stroke-width="0.5"/>
<path d="M692.81 296.08L692.45 297.5"
fill="none" stroke="black" stroke-width="0.5"/>
<path d="M692.45 297.5L691.77 298.87"
fill="none" stroke="black" stroke-width="0.5"/>
<path d="M691.77 298.87L690.8 300.14"
fill="none" stroke="black" stroke-width="0.5"/>
<path d="M690.8 300.14L689.55 301.27"
fill="none" stroke="black" stroke-width="0.5"/>
<path d="M689.55 301.27L688.05 302.25"
fill="none" stroke="black" stroke-width="0.5"/>
<path d="M688.05 302.25L686.35 303.04"
fill="none" stroke="black" stroke-width="0.5"/>
<path d="M686.35 303.04L684.5 303.63"
fill="none" stroke="black" stroke-width="0.5"/>
<path d="M680.84 283.36L683.25 284.49"
fill="none" stroke="black" stroke-width="0.5"/>
<path d="M683.25 284.49L685.49 285.79"
fill="none" stroke="black" stroke-width="0.5"/>
<path d="M685.49 285.79L687.53 287.24"
fill="none" stroke="black" stroke-width="0.5"/>
<path d="M687.53 287.24L689.37 288.83"
fill="none" stroke="black" stroke-width="0.5"/>
<path d="M689.37 288.83L690.98 290.53"
fill="none" stroke="black" stroke-width="0.5"/>
<path d="M680.84 283.36L669.71 283.36"
fill="none" stroke="black" stroke-width="0.5"/>
<path d="M680.84 281.7L669.71 281.7"
fill="none" stroke="black" stroke-width="0.5"/>
<path d="M681.69 268.58L669.71 268.58"
fill="none" stroke="black" stroke-width="0.5"/>
<path d="M680.84 281.7L681.34 281.94"
fill="none" stroke="black" stroke-width="0.5"/>
<path d="M681.34 281.94L681.62 282.31"
fill="none" stroke="black" stroke-width="0.5"/>
<path d="M681.62 282.31L681.62 282.74Z"
fill="none" stroke="black" stroke-width="0.5"/>
<path d="M681.62 282.74L681.34 283.12"
fill="none" stroke="black" stroke-width="0.5"/>
<path d="M681.34 283.12L680.84 283.36"
fill="none" stroke="black" stroke-width="0.5"/>
<path d="M680.84 281.7L679.33 281.35"
fill="none" stroke="black" stroke-width="0.5"/>
<path d="M679.33 281.35L677.96 280.77"
fill="none" stroke="black" stroke-width="0.5"/>
<path d="M677.96 280.77L676.8 279.99"
fill="none" stroke="black" stroke-width="0.5"/>
<path d="M676.8 279.99L675.9 279.05"
fill="none" stroke="black" stroke-width="0.5"/>
<path d="M675.9 279.05L675.31 278"
fill="none" stroke="black" stroke-width="0.5"/>
<path d="M675.31 278L675.05 276.88"
fill="none" stroke="black" stroke-width="0.5"/>
<path d="M675.15 275.6L675.63 275.78"
fill="none" stroke="black" stroke-width="0.5"/>
<path d="M675.63 275.78L675.88 276.12"
fill="none" stroke="black" stroke-width="0.5"/>
<path d="M675.88 276.12L675.82 276.5"
fill="none" stroke="black" stroke-width="0.5"/>
<path d="M675.82 276.5L675.46 276.79"
fill="none" stroke="black" stroke-width="0.5"/>
<path d="M675.46 276.79L674.94 276.88"
fill="none" stroke="black" stroke-width="0.5"/>
<path d="M682.57 270.98L682.16 272.03"
fill="none" stroke="black" stroke-width="0.5"/>
<path d="M682.16 272.03L681.48 272.99"
fill="none" stroke="black" stroke-width="0.5"/>
<path d="M681.48 272.99L680.54 273.85"
fill="none" stroke="black" stroke-width="0.5"/>
<path d="M680.54 273.85L679.4 274.56"
fill="none" stroke="black" stroke-width="0.5"/>
<path d="M679.4 274.56L678.09 275.1"
fill="none" stroke="black" stroke-width="0.5"/>
<path d="M678.09 275.1L676.65 275.45"
fill="none" stroke="black" stroke-width="0.5"/>
<path d="M676.65 275.45L675.15 275.6"
fill="none" stroke="black" stroke-width="0.5"/>
<path d="M684.5 305.09L685.24 305.28"
fill="none" stroke="black" stroke-width="0.5"/>
<path d="M685.24 305.28L685.81 305.66"
fill="none" stroke="black" stroke-width="0.5"/>
<path d="M685.81 305.66L686.14 306.16"
fill="none" stroke="black" stroke-width="0.5"/>
<path d="M686.14 306.16L686.16 306.72"
fill="none" stroke="black" stroke-width="0.5"/>
<path d="M686.16 306.72L685.88 307.25"
fill="none" stroke="black" stroke-width="0.5"/>
<path d="M685.88 307.25L685.34 307.65"
fill="none" stroke="black" stroke-width="0.5"/>
<path d="M685.34 307.65L684.62 307.87"
fill="none" stroke="black" stroke-width="0.5"/>
<path d="M684.62 307.87L683.84 307.88"
fill="none" stroke="black" stroke-width="0.5"/>
<path d="M684.5 305.09L684.5 303.63Z"
fill="none" stroke="black" stroke-width="0.5"/>
<path d="M669.83 249.2L673.03 249.2"
fill="none" stroke="black" stroke-width="0.5"/>
<path d="M673.28 253.84L672.67 252.72"
fill="none" stroke="black" stroke-width="0.5"/>
<path d="M672.67 252.72L672.43 251.54"
fill="none" stroke="black" stroke-width="0.5"/>
<path d="M672.43 251.54L672.55 250.35"
fill="none" stroke="black" stroke-width="0.5"/>
<path d="M672.55 250.35L673.03 249.2"
fill="none" stroke="black" stroke-width="0.5"/>
<path d="M673.28 253.84L674.43 255.25"
fill="none" stroke="black" stroke-width="0.5"/>
<path d="M674.43 255.25L675.26 256.77"
fill="none" stroke="black" stroke-width="0.5"/>
<path d="M675.26 256.77L675.72 258.36"
fill="none" stroke="black" stroke-width="0.5"/>
<path d="M675.72 258.36L675.83 259.99"
fill="none" stroke="black" stroke-width="0.5"/>
<path d="M675.83 259.99L675.56 261.61"
fill="none" stroke="black" stroke-width="0.5"/>
<path d="M669.83 261.61L676.86 261.61"
fill="none" stroke="black" stroke-width="0.5"/>
<path d="M669.83 263.15L676.86 263.15"
fill="none" stroke="black" stroke-width="0.5"/>
<path d="M669.83 265.42L679.32 265.42"
fill="none" stroke="black" stroke-width="0.5"/>
<path d="M676.86 261.61L676.86 263.15Z"
fill="none" stroke="black" stroke-width="0.5"/>
<path d="M676.86 263.15L677.72 263.32"
fill="none" stroke="black" stroke-width="0.5"/>
<path d="M677.72 263.32L678.46 263.68"
fill="none" stroke="black" stroke-width="0.5"/>
<path d="M678.46 263.68L679 264.18"
fill="none" stroke="black" stroke-width="0.5"/>
<path d="M679 264.18L679.3 264.78"
fill="none" stroke="black" stroke-width="0.5"/>
<path d="M679.3 264.78L679.32 265.42"
fill="none" stroke="black" stroke-width="0.5"/>
<path d="M679.31 268.58L678.55 268.11"
fill="none" stroke="black" stroke-width="0.5"/>
<path d="M678.55 268.11L678 267.51"
fill="none" stroke="black" stroke-width="0.5"/>
<path d="M678 267.51L677.69 266.83"
fill="none" stroke="black" stroke-width="0.5"/>
<path d="M677.69 266.83L677.65 266.11"
fill="none" stroke="black" stroke-width="0.5"/>
<path d="M677.65 266.11L677.88 265.42"
fill="none" stroke="black" stroke-width="0.5"/>
<path d="M669.83 305.09L655.17 305.09"
fill="none" stroke="black" stroke-width="0.5"/>
<path d="M669.83 303.63L655.17 303.63"
fill="none" stroke="black" stroke-width="0.5"/>
<path d="M655.17 303.63L653.31 303.04"
fill="none" stroke="black" stroke-width="0.5"/>
<path d="M653.31 303.04L651.61 302.25"
fill="none" stroke="black" stroke-width="0.5"/>
<path d="M651.61 302.25L650.12 301.27"
fill="none" stroke="black" stroke-width="0.5"/>
<path d="M650.12 301.27L648.87 300.14"
fill="none" stroke="black" stroke-width="0.5"/>
<path d="M648.87 300.14L647.89 298.87"
fill="none" stroke="black" stroke-width="0.5"/>
<path d="M647.89 298.87L647.22 297.5"
fill="none" stroke="black" stroke-width="0.5"/>
<path d="M647.22 297.5L646.86 296.08"
fill="none" stroke="black" stroke-width="0.5"/>
<path d="M646.86 296.08L646.83 294.63"
fill="none" stroke="black" stroke-width="0.5"/>
<path d="M646.83 294.63L647.13 293.2"
fill="none" stroke="black" stroke-width="0.5"/>
<path d="M647.13 293.2L647.76 291.82"
fill="none" stroke="black" stroke-width="0.5"/>
<path d="M647.76 291.82L648.68 290.53"
fill="none" stroke="black" stroke-width="0.5"/>
<path d="M648.68 290.53L650.29 288.83"
fill="none" stroke="black" stroke-width="0.5"/>
<path d="M650.29 288.83L652.13 287.24"
fill="none" stroke="black" stroke-width="0.5"/>
<path d="M652.13 287.24L654.18 285.79"
fill="none" stroke="black" stroke-width="0.5"/>
<path d="M654.18 285.79L656.42 284.49"
fill="none" stroke="black" stroke-width="0.5"/>
<path d="M656.42 284.49L658.83 283.36"
fill="none" stroke="black" stroke-width="0.5"/>
<path d="M658.83 283.36L669.96 283.36"
fill="none" stroke="black" stroke-width="0.5"/>
<path d="M658.83 281.7L669.96 281.7"
fill="none" stroke="black" stroke-width="0.5"/>
<path d="M664.62 276.88L675.05 276.88"
fill="none" stroke="black" stroke-width="0.5"/>
<path d="M664.52 275.6L675.15 275.6"
fill="none" stroke="black" stroke-width="0.5"/>
<path d="M657.98 268.58L669.96 268.58"
fill="none" stroke="black" stroke-width="0.5"/>
<path d="M658.83 283.36L658.33 283.12"
fill="none" stroke="black" stroke-width="0.5"/>
<path d="M658.33 283.12L658.04 282.74"
fill="none" stroke="black" stroke-width="0.5"/>
<path d="M658.04 282.74L658.04 282.31Z"
fill="none" stroke="black" stroke-width="0.5"/>
<path d="M658.04 282.31L658.33 281.94"
fill="none" stroke="black" stroke-width="0.5"/>
<path d="M658.33 281.94L658.83 281.7"
fill="none" stroke="black" stroke-width="0.5"/>
<path d="M664.62 276.88L664.36 278"
fill="none" stroke="black" stroke-width="0.5"/>
<path d="M664.36 278L663.76 279.05"
fill="none" stroke="black" stroke-width="0.5"/>
<path d="M663.76 279.05L662.87 279.99"
fill="none" stroke="black" stroke-width="0.5"/>
<path d="M662.87 279.99L661.71 280.77"
fill="none" stroke="black" stroke-width="0.5"/>
<path d="M661.71 280.77L660.34 281.35"
fill="none" stroke="black" stroke-width="0.5"/>
<path d="M660.34 281.35L658.83 281.7"
fill="none" stroke="black" stroke-width="0.5"/>
<path d="M664.73 276.88L664.21 276.79"
fill="none" stroke="black" stroke-width="0.5"/>
<path d="M664.21 276.79L663.85 276.5"
fill="none" stroke="black" stroke-width="0.5"/>
<path d="M663.85 276.5L663.79 276.12"
fill="none" stroke="black" stroke-width="0.5"/>
<path d="M663.79 276.12L664.04 275.78"
fill="none" stroke="black" stroke-width="0.5"/>
<path d="M664.04 275.78L664.52 275.6"
fill="none" stroke="black" stroke-width="0.5"/>
<path d="M657.1 270.98L657.1 270.14Z"
fill="none" stroke="black" stroke-width="0.5"/>
<path d="M657.1 270.14L657.4 269.32"
fill="none" stroke="black" stroke-width="0.5"/>
<path d="M657.4 269.32L657.98 268.58"
fill="none" stroke="black" stroke-width="0.5"/>
<path d="M664.52 275.6L663.02 275.45"
fill="none" stroke="black" stroke-width="0.5"/>
<path d="M663.02 275.45L661.58 275.1"
fill="none" stroke="black" stroke-width="0.5"/>
<path d="M661.58 275.1L660.26 274.56"
fill="none" stroke="black" stroke-width="0.5"/>
<path d="M660.26 274.56L659.12 273.85"
fill="none" stroke="black" stroke-width="0.5"/>
<path d="M659.12 273.85L658.19 272.99"
fill="none" stroke="black" stroke-width="0.5"/>
<path d="M658.19 272.99L657.51 272.03"
fill="none" stroke="black" stroke-width="0.5"/>
<path d="M657.51 272.03L657.1 270.98"
fill="none" stroke="black" stroke-width="0.5"/>
<path d="M655.82 307.88L655.04 307.87"
fill="none" stroke="black" stroke-width="0.5"/>
<path d="M655.04 307.87L654.32 307.65"
fill="none" stroke="black" stroke-width="0.5"/>
<path d="M654.32 307.65L653.78 307.25"
fill="none" stroke="black" stroke-width="0.5"/>
<path d="M653.78 307.25L653.5 306.72"
fill="none" stroke="black" stroke-width="0.5"/>
<path d="M653.5 306.72L653.53 306.16"
fill="none" stroke="black" stroke-width="0.5"/>
<path d="M653.53 306.16L653.85 305.66"
fill="none" stroke="black" stroke-width="0.5"/>
<path d="M653.85 305.66L654.43 305.28"
fill="none" stroke="black" stroke-width="0.5"/>
<path d="M654.43 305.28L655.17 305.09"
fill="none" stroke="black" stroke-width="0.5"/>
<path d="M655.17 305.09L655.17 303.63Z"
fill="none" stroke="black" stroke-width="0.5"/>
<path d="M669.83 249.2L666.63 249.2"
fill="none" stroke="black" stroke-width="0.5"/>
<path d="M666.63 249.2L667.12 250.35"
fill="none" stroke="black" stroke-width="0.5"/>
<path d="M667.12 250.35L667.24 251.54"
fill="none" stroke="black" stroke-width="0.5"/>
<path d="M667.24 251.54L666.99 252.72"
fill="none" stroke="black" stroke-width="0.5"/>
<path d="M666.99 252.72L666.38 253.84"
fill="none" stroke="black" stroke-width="0.5"/>
<path d="M664.1 261.61L663.84 259.99"
fill="none" stroke="black" stroke-width="0.5"/>
<path d="M663.84 259.99L663.94 258.36"
fill="none" stroke="black" stroke-width="0.5"/>
<path d="M663.94 258.36L664.41 256.77"
fill="none" stroke="black" stroke-width="0.5"/>
<path d="M664.41 256.77L665.23 255.25"
fill="none" stroke="black" stroke-width="0.5"/>
<path d="M665.23 255.25L666.38 253.84"
fill="none" stroke="black" stroke-width="0.5"/>
<path d="M669.83 261.61L662.8 261.61"
fill="none" stroke="black" stroke-width="0.5"/>
<path d="M669.83 263.15L662.8 263.15"
fill="none" stroke="black" stroke-width="0.5"/>
<path d="M669.83 265.42L660.35 265.42"
fill="none" stroke="black" stroke-width="0.5"/>
<path d="M662.8 261.61L662.8 263.15Z"
fill="none" stroke="black" stroke-width="0.5"/>
<path d="M660.35 265.42L660.37 264.78"
fill="none" stroke="black" stroke-width="0.5"/>
<path d="M660.37 264.78L660.66 264.18"
fill="none" stroke="black" stroke-width="0.5"/>
<path d="M660.66 264.18L661.21 263.68"
fill="none" stroke="black" stroke-width="0.5"/>
<path d="M661.21 263.68L661.95 263.32"
fill="none" stroke="black" stroke-width="0.5"/>
<path d="M661.95 263.32L662.8 263.15"
fill="none" stroke="black" stroke-width="0.5"/>
<path d="M661.78 265.42L662.01 266.11"
fill="none" stroke="black" stroke-width="0.5"/>
<path d="M662.01 266.11L661.97 266.83"
fill="none" stroke="black" stroke-width="0.5"/>
<path d="M661.97 266.83L661.67 267.51"
fill="none" stroke="black" stroke-width="0.5"/>
<path d="M661.67 267.51L661.11 268.11"
fill="none" stroke="black" stroke-width="0.5"/>
<path d="M661.11 268.11L660.36 268.58"
fill="none" stroke="black" stroke-width="0.5"/>
<path d="M683.84 307.88L655.82 307.88"
fill="none" stroke="black" stroke-width="0.5"/>
<path d="M682.57 270.98L682.56 270.14Z"
fill="none" stroke="black" stroke-width="0.5"/>
<path d="M682.56 270.14L682.26 269.32"
fill="none" stroke="black" stroke-width="0.5"/>
<path d="M682.26 269.32L681.69 268.58"
fill="none" stroke="black" stroke-width="0.5"/>
<path d="M675.15 275.6L676.65 275.45"
fill="none" stroke="black" stroke-width="0.5"/>
<path d="M676.65 275.45L678.09 275.1"
fill="none" stroke="black" stroke-width="0.5"/>
<path d="M678.09 275.1L679.4 274.56"
fill="none" stroke="black" stroke-width="0.5"/>
<path d="M679.4 274.56L680.54 273.85"
fill="none" stroke="black" stroke-width="0.5"/>
<path d="M680.54 273.85L681.48 272.99"
fill="none" stroke="black" stroke-width="0.5"/>
<path d="M681.48 272.99L682.16 272.03"
fill="none" stroke="black" stroke-width="0.5"/>
<path d="M682.16 272.03L682.57 270.98"
fill="none" stroke="black" stroke-width="0.5"/>
</svg>
